# xmcd
#
# Track frame offsets:
#   150
#   10963
#   23160
#   32435
#   44955
#   58456
#   73623
#   86509
#   98263
#   110973
#   124363
#   135507
#
# Disc length: 1980 seconds
#
# Revision: 0
# Processed by: cddbd v1.4PL0 Copyright (c) Steve Scherf et al.
# Submitted via: uFREEDB 1.6.0
#
DISCID=a807ba0c
DTITLE=Martin, Dean - Happiness Is Dean Martin
DYEAR=1967
DGENRE=Country
TTITLE0=Lay Some Happiness On Me
TTITLE1=Think About Me
TTITLE2=I'm Not The Marrying Kind
TTITLE3=If I Ever Get Back To Georgia
TTITLE4=It Just Happened That Way
TTITLE5=(Open Up The Door) Let The Good Times In
TTITLE6=You've Still Got A Place In My Heart
TTITLE7=Sweet Sweet Lovable You
TTITLE8=He's Got You
TTITLE9=Thirty More Miles To San Diego
TTITLE10=Nobody's Baby Again
TTITLE11=You've Still Got A Place In My Heart (Single-Versi
EXTD=
EXTT0=
EXTT1=
EXTT2=
EXTT3=
EXTT4=
EXTT5=
EXTT6=
EXTT7=
EXTT8=
EXTT9=
EXTT10=
EXTT11=
PLAYORDER=
